<svg width="116" height="25" viewBox="0 0 116 25" fill="none" xmlns="http://www.w3.org/2000/svg">
<g opacity="0.3">
<path d="M17.0142 0.567871H7.34469C3.42596 0.567871 0.240234 3.73865 0.240234 7.63474V17.2549C0.240234 21.1505 3.42596 24.3218 7.34469 24.3218H17.0137C20.929 24.3218 24.1162 21.1505 24.1162 17.2549V7.63474C24.1167 3.73865 20.9295 0.567871 17.0142 0.567871Z" fill="black"/>
<path d="M19.7161 15.3642L19.7072 15.47C19.6732 15.8822 19.4136 16.2992 18.9826 16.2992C18.653 16.2992 18.388 16.1777 18.1717 15.9287C17.9121 15.6313 17.6786 15.274 17.4422 14.6266C18.1116 12.3659 20.1772 5.12408 20.1772 5.12408H16.2574C16.2574 5.12408 15.8954 6.82218 15.5688 8.3669C15.5525 8.32916 15.5358 8.29192 15.5185 8.25614C15.1919 7.56171 14.6702 6.78984 14.0909 6.24733C13.0811 5.30295 11.8934 4.84277 10.4594 4.84277C8.48008 4.84277 6.80569 5.57102 5.48254 7.00792C4.16578 8.436 3.47021 10.2684 3.47021 12.3061C3.47021 14.5757 4.13081 16.4399 5.43327 17.8444C6.7919 19.3122 8.41653 19.9959 10.5446 19.9959C11.7845 19.9959 12.9678 19.6293 14.0648 18.9074C14.7737 18.4418 15.4205 17.7969 16.0318 16.9594C16.2885 17.7861 16.5471 18.3512 16.8565 18.7741C17.357 19.4568 18.1067 19.8479 18.9131 19.8479C19.7525 19.8479 20.5171 19.42 20.9097 18.7325C21.2575 18.1223 21.3993 17.3652 21.3993 16.1199V15.3642H19.7161ZM13.1456 16.8119C12.5515 17.6773 11.7757 18.1341 10.9018 18.1341C9.88353 18.1341 9.11358 17.6803 8.54658 16.7423C7.952 15.7602 7.65101 14.2885 7.65101 12.3669C7.65101 10.6051 7.97023 9.20493 8.59929 8.20517C9.19043 7.26668 9.93132 6.82856 10.9303 6.82856C11.8195 6.82856 12.5136 7.19611 13.117 7.98807C13.7638 8.83786 14.3106 10.2419 14.7023 12.0469C14.2106 14.4869 13.7298 15.9621 13.1456 16.8119Z" fill="#F5F5F5"/>
<path d="M36.07 5.46848C35.7991 4.25457 35.0296 3.40674 33.3409 3.40674C31.7523 3.40674 30.8818 4.25457 30.6109 5.46848L29.3848 10.9632H30.6956C30.9946 10.9632 31.2922 10.726 31.3562 10.4354L31.604 9.31753H35.0774L35.3257 10.4354C35.3897 10.7255 35.6868 10.9632 35.9858 10.9632H37.2971L36.07 5.46848ZM31.9473 7.76889L32.3794 5.82281C32.4488 5.50818 32.6951 5.02741 33.3414 5.02741C33.9872 5.02741 34.2331 5.50769 34.3035 5.82281L34.735 7.76889H31.9473Z" fill="black"/>
<path d="M40.5282 5.2419H43.4523V10.963H45.2622V3.58496H39.8035C39.207 3.58496 38.7173 4.07111 38.7173 4.66558V8.39406C38.7173 8.89296 38.4863 9.21053 38.0848 9.29041L37.7139 9.37862L38.0498 10.9635H38.3942C39.6326 10.9635 40.5282 10.0466 40.5282 8.48718V5.2419Z" fill="black"/>
<path d="M60.9945 3.58493H60.3349V2.72729H59.0679C58.7689 2.72729 58.5246 2.9689 58.5246 3.26687V3.58493H57.865C55.6275 3.58493 54.229 5.1022 54.229 7.27372C54.229 9.44573 55.6275 10.963 57.865 10.963H58.5246V11.8574H59.7916C60.0906 11.8574 60.3349 11.6143 60.3349 11.3183V10.963H60.9945C63.232 10.963 64.63 9.44573 64.63 7.27372C64.63 5.1022 63.232 3.58493 60.9945 3.58493ZM57.865 9.3335C56.6256 9.3335 56.0394 8.5533 56.0394 7.27372C56.0394 5.99511 56.6256 5.21491 57.865 5.21491H58.5246V9.3335H57.865ZM60.9945 9.3335H60.3349V5.21491H60.9945C62.2344 5.21491 62.8187 5.99511 62.8187 7.27372C62.8187 8.5533 62.234 9.3335 60.9945 9.3335Z" fill="black"/>
<path d="M50.8801 5.45606H48.282V3.58594H46.4717V10.4235C46.4717 10.7204 46.7165 10.9635 47.015 10.9635H50.8801C52.4584 10.9635 53.6466 9.78048 53.6466 8.20979C53.6466 6.63959 52.6495 5.45606 50.8801 5.45606ZM50.8801 9.30707H48.282V7.11251H50.8801C51.3214 7.11251 51.8367 7.50555 51.8367 8.2093C51.8367 8.91256 51.3214 9.30707 50.8801 9.30707Z" fill="black"/>
<path d="M71.3819 5.46848C71.11 4.25457 70.341 3.40674 68.6519 3.40674C67.0647 3.40674 66.1937 4.25457 65.9218 5.46848L64.6957 10.9632H66.0075C66.3055 10.9632 66.6036 10.726 66.6666 10.4354L66.9149 9.31753H70.3888L70.6361 10.4354C70.7001 10.7255 70.9977 10.9632 71.2962 10.9632H72.607L71.3819 5.46848ZM67.2592 7.76889L67.6893 5.82281C67.7607 5.50818 68.0065 5.02741 68.6519 5.02741C69.2982 5.02741 69.543 5.50769 69.6144 5.82281L70.0454 7.76889H67.2592Z" fill="black"/>
<path d="M81.8765 17.4878C82.1957 17.1752 82.4011 16.7493 82.4011 16.1588C82.4011 14.8512 81.3829 13.9368 80.0676 13.9368H75.6415C75.343 13.9368 75.0986 14.1794 75.0986 14.4768V20.7748C75.0986 21.0718 75.343 21.3148 75.6415 21.3148L80.3469 21.3158C81.7336 21.3158 82.6543 20.3288 82.6543 19.0213C82.6543 18.3631 82.34 17.8476 81.8765 17.4878ZM80.0656 15.4683C80.3065 15.4683 80.6356 15.7368 80.6356 16.1955C80.6356 16.6577 80.3065 16.8934 80.0656 16.9223H76.8725V15.4678H80.0656V15.4683ZM80.211 19.7848H76.872V18.3293H80.211C80.4518 18.3587 80.7804 18.5939 80.7804 19.0566C80.7804 19.5148 80.4518 19.7848 80.211 19.7848Z" fill="black"/>
<path d="M69.9177 13.7673C67.6797 13.7673 66.1152 15.3527 66.1152 17.6262C66.1152 19.8987 67.6792 21.4855 69.9177 21.4855H70.5374C72.7758 21.4855 74.3398 19.8987 74.3398 17.6262C74.3398 15.3527 72.7763 13.7673 70.5374 13.7673H69.9177ZM68.0708 17.6262C68.0708 16.303 68.7792 15.2915 70.027 15.2915H70.429C71.6758 15.2915 72.3837 16.303 72.3837 17.6262C72.3837 18.9494 71.6753 19.9619 70.429 19.9619H70.027C68.7787 19.9614 68.0708 18.9494 68.0708 17.6262Z" fill="black"/>
<path d="M36.1318 13.9368L36.3703 15.0527C36.4338 15.3501 36.7304 15.5927 37.0289 15.5927H38.7166V21.3143H40.5274V15.5932H42.1624C42.4604 15.5932 42.7565 15.3506 42.8195 15.0532L43.058 13.9373H36.1318" fill="black"/>
<path d="M97.1153 13.9368V16.8664H93.5931V13.9368H91.7823V21.3148H93.5931V18.4489H97.1153V21.3148H98.9262V13.9368H97.1153Z" fill="black"/>
<path d="M57.2023 15.8213C56.9309 14.6069 56.1629 13.76 54.4728 13.76C52.8865 13.76 52.0151 14.6073 51.7447 15.8213L50.5176 21.315H51.8289C52.1279 21.315 52.425 21.0788 52.4895 20.7882L52.7368 19.6698H56.2092L56.457 20.7882C56.5205 21.0788 56.8186 21.315 57.1176 21.315H58.4284L57.2023 15.8213ZM53.0806 18.1207L53.5117 16.1746C53.5816 15.8605 53.8274 15.3792 54.4737 15.3792C55.1201 15.3792 55.3659 15.8605 55.4363 16.1756L55.8673 18.1202H53.0806V18.1207Z" fill="black"/>
<path d="M89.756 15.8213C89.4841 14.6069 88.7161 13.76 87.026 13.76C85.4383 13.76 84.5683 14.6073 84.2969 15.8213L83.0708 21.315H84.3826C84.6807 21.315 84.9782 21.0788 85.0417 20.7882L85.2905 19.6698H88.7634L89.0122 20.7882C89.0767 21.0788 89.3733 21.315 89.6713 21.315H90.9841L89.756 15.8213ZM85.6324 18.1207L86.0644 16.1746C86.1358 15.8605 86.3807 15.3792 87.026 15.3792C87.6713 15.3792 87.9181 15.8605 87.9886 16.1756L88.4196 18.1202H85.6324V18.1207Z" fill="black"/>
<path d="M36.6954 21.295V21.3161H33.1584C31.0171 21.3161 29.5215 19.7993 29.5215 17.6263C29.5215 15.4543 31.0175 13.9375 33.1584 13.9375H35.8417L35.5791 15.0681C35.5121 15.3582 35.2126 15.594 34.9136 15.594H33.1584C32.0141 15.594 31.3318 16.4437 31.3318 17.6268C31.3318 18.8093 32.0136 19.6596 33.1584 19.6596H35.7727C36.0708 19.6596 36.3708 19.8958 36.4378 20.1859L36.6954 21.295Z" fill="black"/>
<path d="M47.9113 13.9368L44.0468 13.9373C43.7473 13.9373 43.5034 14.1803 43.5034 14.4773V21.3153H45.3143V19.4437H47.9113C49.6828 19.4437 50.6793 18.2602 50.6793 16.691C50.6793 15.1213 49.4896 13.9368 47.9113 13.9368ZM47.9113 17.7878H45.3143V15.5952H47.9113C48.3532 15.5952 48.869 15.9877 48.869 16.6915C48.869 17.3942 48.3532 17.7878 47.9113 17.7878Z" fill="black"/>
<path d="M114.273 19.7574H110.373V18.3406H114.613V16.9174H110.373V15.4937H114.273C114.595 15.4937 114.848 15.3536 114.937 14.9674L115.178 13.9363H109.106C108.808 13.9363 108.563 14.1789 108.563 14.4763V20.7743C108.563 21.0713 108.808 21.3153 109.106 21.3153H115.178L114.937 20.2842C114.848 19.8985 114.595 19.7574 114.273 19.7574Z" fill="black"/>
<path d="M100.168 21.3148V13.9368H101.978V18.8047L105.115 14.372C105.292 14.1328 105.679 13.9368 105.98 13.9368H107.323V21.3148H105.511V16.4474L102.374 20.8797C102.198 21.1188 101.809 21.3148 101.51 21.3148H100.168Z" fill="black"/>
<path d="M63.8903 17.5871L66.4174 13.9375H64.7543C64.3952 13.9375 64.1425 14.0463 63.9203 14.3928L62.574 16.4962H62.3331L60.9858 14.3928C60.7646 14.0458 60.5124 13.9375 60.1513 13.9375H58.4346L61.0159 17.665L58.4888 21.3151H60.1513C60.5119 21.3151 60.7646 21.2073 60.9858 20.8598L62.3331 18.7559H62.574L63.9203 20.8598C64.1425 21.2073 64.3952 21.3151 64.7543 21.3151H66.471L63.8903 17.5871Z" fill="black"/>
</g>
</svg>
