<svg width="108" height="29" viewBox="0 0 108 29" fill="none" xmlns="http://www.w3.org/2000/svg">
<g opacity="0.25">
<path d="M79.7041 15.4795L77.8832 15.5464L77.7483 15.078L75.9948 15.0111V14.6765H74.1738L74.4436 15.2787L75.2529 15.4126L75.1855 15.1449L75.9273 15.6802L77.1413 15.9479H77.9506L80.0414 15.6802L79.7041 15.4795Z" fill="black"/>
<path d="M27.7621 13.5259H33.6866V18.8351L36.9355 13.5259H43.4971L38.4644 20.4785L43.6245 28.1896H36.8081L33.6866 22.6275V28.1896H27.7621V13.5259Z" fill="black"/>
<path d="M26.2971 27.7472C25.3416 28.2528 24.0675 28.6321 22.3475 28.6321C17.5059 28.6321 14.0659 25.535 14.0659 20.8578C14.0659 15.5485 18.4615 13.0835 22.2201 13.0835C23.4304 13.0835 25.0867 13.3995 26.2971 14.2212V19.3408C25.4053 18.2031 24.0675 17.7607 23.0482 17.7607C20.8186 17.7607 19.7993 19.2144 19.7993 20.9842C19.7993 22.8804 21.2008 23.9548 23.0482 23.9548C24.386 23.9548 25.5327 23.386 26.3608 22.6275C26.2971 22.6275 26.2971 27.7472 26.2971 27.7472Z" fill="black"/>
<path d="M6.10271 19.0247V16.9389H6.67605C7.69532 16.9389 8.01384 17.4446 8.01384 17.9502C8.01384 18.4559 7.75902 18.9615 6.67605 18.9615L6.10271 19.0247ZM0.178223 13.4626V28.1895H8.9694C13.0465 28.1895 13.9383 25.5981 13.9383 24.0812C13.9383 22.0586 12.5368 20.6681 10.6257 20.352V20.2888C11.8361 19.9096 13.2376 18.8983 13.2376 17.1918C13.2376 16.0541 12.7917 13.4626 8.52347 13.4626C8.52347 13.4626 0.178223 13.4626 0.178223 13.4626ZM6.10271 24.5868V22.3746H6.80346C7.3768 22.3746 8.26865 22.501 8.26865 23.4491C8.26865 24.4604 7.31309 24.5868 6.80346 24.5868H6.10271Z" fill="black"/>
<path d="M73.9475 13.9684L73.1194 13.842C73.1194 13.842 73.1194 13.5892 72.8008 13.3996C72.4823 13.2732 72.546 13.3996 72.546 13.3996L72.2275 13.21L71.6542 13.1467L71.5905 12.7675L70.8897 12.7043V12.5147L70.3164 12.4515L70.0616 12.2619L70.1253 12.009L69.9979 11.8194L69.2971 11.5034L68.7238 11.3138L68.3415 10.8714L67.8956 10.4921L67.3223 9.92327L65.8571 9.41762L64.5193 8.46954L63.946 8.21672L63.3726 7.9639L62.1622 7.33184L60.3148 6.32055L56.3015 4.42439L55.1548 3.91874C54.5177 3.66592 54.3903 3.4763 54.3903 3.4131C53.817 3.28669 53.6259 3.16028 53.3074 2.90745C52.9888 2.90745 52.2881 2.52822 52.097 2.3386C52.097 2.3386 50.8866 2.02258 50.8229 1.89617C50.8229 1.83296 47.7651 0.758466 47.3829 0.695261C47.1281 0.695261 46.3636 0.56885 46.2362 0.505644C46.1088 0.505644 45.6629 0.379233 45.4717 0.316028C44.8347 0.252822 44.1977 0.126411 43.5606 0.126411C43.1147 0.126411 42.7962 0.126411 42.4139 0C42.2865 0.0632055 41.331 -0.0632055 40.9487 0.189617C40.5665 0.189617 39.6747 0.379233 39.4198 0.505644C38.9102 0.505644 38.0184 1.07449 37.6998 1.2009C37.5724 1.26411 37.3813 1.32732 37.2539 1.39052C38.2095 1.70655 39.2924 2.08578 39.2924 2.14899C39.3561 2.21219 40.5665 2.52822 40.5665 2.59143C40.885 2.84425 41.5858 3.22348 41.9043 3.22348C42.2228 3.53951 42.4139 3.60271 42.9873 3.72913C42.9873 3.79233 43.1147 3.98195 43.7517 4.23477L44.8984 4.74041L48.9118 6.63658L50.7592 7.64787L51.9696 8.27992L52.5429 8.53275L53.1162 8.78557L53.5622 9.1016L54.454 9.41762L56.4289 10.0497L58.8496 10.9346L59.7415 11.2506L60.6333 11.5034L61.0793 11.4402L61.5252 11.5666L62.0348 12.009L62.5445 11.8194L62.9267 11.8826L63.1815 12.2619L63.3726 12.4515L63.8185 12.5779L64.2645 12.6411L64.7741 12.5147L65.4112 12.5779L65.6023 12.9571L66.4941 13.0835L67.1312 13.1467L67.7682 13.21L68.2778 13.3996L68.7238 13.842L69.3608 13.9684L71.0171 14.2212L72.4823 14.0316L73.4379 14.0948L73.9475 13.9684Z" fill="black"/>
<path d="M60.6332 16.3071H62.417V16.6232L64.0096 16.7496L64.2007 17.1288L65.857 17.0656L66.2392 17.3184L64.2644 17.5712L63.4999 17.508L62.3533 17.2552L61.6525 16.8128L61.7162 17.0024L60.9518 16.9392L60.6332 16.3071Z" fill="black"/>
<path d="M60.8246 15.6118C60.8246 15.6118 60.8246 15.3589 60.5061 15.1693C60.1875 15.0429 60.2513 15.1693 60.2513 15.1693L59.9327 14.9797L59.4231 14.8533V14.4741L58.7224 14.4109V14.2212L58.149 14.158L57.8942 13.9684L57.9579 13.7156L57.8305 13.526L57.1298 13.2099L56.5564 13.0203L56.1742 12.5779L55.7283 12.1987L55.1549 11.6298L53.6897 11.1242L52.3519 10.1761L51.7786 9.92326L51.2053 9.67044L49.9949 9.03838L48.1475 8.0271L44.1341 6.13093L42.9874 5.62529C42.3504 5.37246 42.223 5.18285 42.223 5.11964C41.6496 4.99323 41.4585 4.86682 41.14 4.614C40.8215 4.614 40.1207 4.23476 39.9296 4.04515C39.9296 4.04515 38.7192 3.72912 38.6555 3.60271C38.6555 3.5395 35.5977 2.46501 35.2155 2.4018C34.9607 2.4018 34.1962 2.27539 34.0688 2.21219C33.9414 2.21219 33.4955 2.08578 33.3044 2.02257C32.6673 1.95937 32.0303 1.83295 31.3933 1.83295C30.9473 1.83295 30.6288 1.83295 30.2466 1.70654C30.1192 1.76975 29.1636 1.64334 28.7814 1.89616C28.3992 1.89616 27.5073 2.08578 27.2525 2.21219C26.7429 2.21219 25.851 2.78104 25.5325 2.90745C25.2777 3.03386 24.9591 3.16027 24.7043 3.28668C24.5769 3.34989 22.9206 4.17156 22.7932 4.29797C22.7932 4.36117 21.1369 5.30926 21.0095 5.43567C20.9458 5.49887 20.4998 5.68849 20.3724 5.8149C20.245 5.94131 19.7991 6.32055 19.6717 6.38375C19.608 6.51016 19.1621 6.69978 19.0984 6.82619C18.9709 6.9526 18.4613 7.20542 18.3976 7.26863C18.3976 7.26863 18.0791 7.52145 17.888 7.71107C17.8243 7.83748 17.6969 7.96389 17.6332 8.0903C17.5058 8.15351 17.0598 8.40633 16.9324 8.46953C16.9324 8.72236 16.9324 9.16479 16.5502 9.03838C16.5502 9.03838 16.0406 9.35441 16.0406 9.29121C16.1043 9.29121 15.7857 9.73364 15.5309 10.0497C15.4035 10.2393 14.6391 10.4921 14.5117 10.6817C14.1931 11.061 13.8746 11.4402 13.5561 11.8194C13.5561 11.8194 13.5561 11.8194 13.6198 11.8194C13.6198 11.8826 13.8746 11.8826 13.9383 11.9458C14.002 12.0722 13.8109 12.1987 13.8109 12.3883C13.8109 12.3883 13.8109 12.3883 13.8746 12.3883C14.0657 12.3883 14.3205 12.1355 14.5117 12.0722C14.6391 12.009 14.8302 11.9458 14.9576 11.8826C15.2124 11.7562 15.4672 11.5666 15.7857 11.4402C17.7606 10.3657 19.7991 9.35441 21.7739 8.27992C22.7295 7.77427 23.4939 7.33183 24.5769 6.76298C24.8317 6.63657 25.7873 6.00452 26.488 5.94131C27.3799 5.87811 28.5266 6.13093 28.7814 6.25734C29.0362 6.38375 29.737 6.69978 30.1192 6.76298C30.2466 6.82619 30.4377 6.9526 30.5014 6.9526C30.5651 7.01581 31.2022 7.07901 31.5207 7.20542C31.6481 7.26863 31.7755 7.33183 31.9029 7.39504C32.4762 7.58466 33.8777 7.90068 34.3874 8.0271C34.8333 8.15351 35.0881 8.40633 35.2792 8.46953C35.5977 8.65915 35.6614 8.59595 35.98 8.72236C36.5533 8.78556 36.8718 8.97518 36.8718 8.97518C37.0629 9.03838 37.1266 9.10159 37.3178 9.16479C37.4452 9.16479 37.7637 9.41762 37.8274 9.41762C37.9548 9.41762 38.8467 9.73364 38.9741 9.73364C39.1015 9.73364 39.7385 9.98647 39.8659 10.0497C40.057 10.1129 40.2481 10.1761 40.4393 10.2393L42.2867 10.9345L44.2615 11.5666L46.6823 12.4515L47.5741 12.7675L48.466 13.0203L48.9119 12.9571L49.3578 13.0835L49.8675 13.526L50.3771 13.3364L50.7593 13.3996L51.0142 13.7788L51.2053 13.9684L51.6512 14.0948L52.0971 14.158L52.6068 14.0316L53.2438 14.0948L53.4349 14.4741L54.3268 14.6005L54.9638 14.6637L55.6008 14.7269L56.1105 14.9165L56.5564 15.3589L57.1935 15.4853L58.8498 15.7382L60.315 15.5486L61.2705 15.6118L61.589 15.3589L60.8246 15.6118Z" fill="black"/>
<path d="M48.5935 27.6206C48.3387 27.747 47.9565 27.8734 47.4469 27.8734C46.6187 27.8734 46.1091 27.6206 45.7269 27.2414C45.1535 26.7357 44.9624 26.1669 44.9624 25.4716C44.9624 24.65 45.3446 24.0179 45.7269 23.7019C46.1728 23.2594 46.8098 23.0698 47.4469 23.0698C47.7654 23.0698 48.2113 23.133 48.5935 23.3226V24.3971C48.1476 23.8915 47.638 23.8915 47.4469 23.8915C46.4913 23.8915 45.8543 24.65 45.8543 25.4716C45.8543 26.4829 46.6824 27.0518 47.4469 27.0518C47.8928 27.0518 48.275 26.8622 48.5298 26.5461C48.5935 26.6093 48.5935 27.6206 48.5935 27.6206Z" fill="black"/>
<path d="M51.269 27.8103H50.3134V24.018H49.2305V23.2595H52.2883V24.018H51.2053L51.269 27.8103Z" fill="black"/>
<path d="M54.1992 23.9548H54.5177C54.7088 23.9548 54.9637 23.9548 55.1548 24.0812C55.2822 24.2076 55.4096 24.334 55.4096 24.5868C55.4096 24.7764 55.3459 24.966 55.1548 25.0925C54.9637 25.3453 54.7725 25.3453 54.5814 25.3453H54.1992V23.9548ZM53.2437 23.1963V27.8103H54.1992V26.1037H54.7725C55.3459 26.1037 55.7281 25.9773 55.9829 25.7245C56.3651 25.3453 56.3651 24.9028 56.3651 24.7132C56.3651 24.3972 56.2377 23.9548 55.8555 23.5755C55.537 23.2595 55.1548 23.1963 54.5814 23.1963H53.2437Z" fill="black"/>
<path d="M58.3401 26.104L59.0409 24.4606L59.6779 26.104H58.3401ZM60.3787 27.8105H61.3342L59.3594 23.1333H58.6587L56.6201 27.8105H57.6394L58.0853 26.8624H59.9964L60.3787 27.8105Z" fill="black"/>
<path d="M63.4365 25.4085L62.035 23.2595H63.1179L63.9461 24.65L64.838 23.2595H65.9209L64.4557 25.4085L66.0483 27.8103H64.9654L63.9461 26.1038L62.8631 27.8103H61.7802L63.4365 25.4085Z" fill="black"/>
<path d="M69.4886 27.1152C68.533 27.1152 67.896 26.4832 67.896 25.5351C67.896 24.587 68.533 23.955 69.4886 23.955C70.4442 23.955 71.0812 24.587 71.0812 25.5351C71.0812 26.42 70.3805 27.1152 69.4886 27.1152ZM69.4886 23.1333C68.0234 23.1333 66.9404 24.1446 66.9404 25.5351C66.9404 26.9256 67.9597 27.9369 69.4886 27.9369C70.9538 27.9369 72.0368 26.9256 72.0368 25.5351C72.0368 24.1446 70.9538 23.1333 69.4886 23.1333Z" fill="black"/>
<path d="M74.1389 23.955H74.3937C74.776 23.955 75.0945 24.0814 75.0945 24.5238C75.0945 25.0927 74.5212 25.0927 74.3937 25.0927H74.1389V23.955ZM73.2471 23.1965V27.8105H74.8397C75.2219 27.8105 75.6678 27.7473 76.0501 27.4313C76.3686 27.1785 76.4323 26.7992 76.4323 26.4832C76.4323 26.2304 76.3686 25.9143 76.1138 25.5983C75.9864 25.4719 75.7952 25.3455 75.4767 25.2823C75.6041 25.2191 75.9864 24.9663 75.9864 24.3974C75.9864 24.0182 75.7952 23.6389 75.5404 23.4493C75.1582 23.1333 74.6486 23.1333 74.3937 23.1333L73.2471 23.1965ZM74.1389 25.7879H74.4575C74.6486 25.7879 74.9034 25.7879 75.0945 25.8511C75.413 25.9775 75.413 26.2304 75.413 26.3568C75.413 26.5464 75.3493 26.736 75.0945 26.8624C74.9034 26.9888 74.6486 26.9888 74.4575 26.9888H74.0752V25.7879H74.1389Z" fill="black"/>
<path d="M79.9359 27.1152C78.9803 27.1152 78.3433 26.4832 78.3433 25.5351C78.3433 24.587 78.9803 23.955 79.9359 23.955C80.8277 23.955 81.5285 24.587 81.5285 25.5351C81.5285 26.42 80.8914 27.1152 79.9359 27.1152ZM79.9359 23.1333C78.4707 23.1333 77.3877 24.1446 77.3877 25.5351C77.3877 26.9256 78.407 27.9369 79.9359 27.9369C81.4011 27.9369 82.484 26.9256 82.484 25.5351C82.484 24.1446 81.4011 23.1333 79.9359 23.1333Z" fill="black"/>
<path d="M84.5864 23.1964V26.2935L87.1983 23.1332H87.8353V27.8104H86.8798V24.7133L84.2679 27.8736H83.6309V23.1964C83.6946 23.1964 84.5864 23.1964 84.5864 23.1964ZM85.1598 21.7427C85.2872 22.1219 85.7331 22.1219 85.7968 22.1219C85.8605 22.1219 86.3064 22.1219 86.4338 21.7427L87.0709 21.9955C86.8798 22.4379 86.4338 22.754 85.7968 22.754C85.1598 22.754 84.7138 22.4379 84.5227 21.9955L85.1598 21.7427Z" fill="black"/>
<path d="M92.6765 23.9548H94.078V26.9886H92.1669C92.2943 26.8622 92.4217 26.6726 92.5491 26.4198C92.6128 26.2302 92.7402 25.8509 92.7402 25.1557V23.9548H92.6765ZM91.7847 23.1963V25.2189C91.7847 25.8509 91.721 26.167 91.5935 26.4198C91.4661 26.7358 91.2113 27.0518 90.8291 27.0518V28.8848H91.6573V27.8735H94.5876V28.8848H95.4158V27.0518H94.9062V23.2595H91.7847V23.1963Z" fill="black"/>
<path d="M98.7283 27.1152C97.7728 27.1152 97.1357 26.4832 97.1357 25.5351C97.1357 24.587 97.7728 23.955 98.7283 23.955C99.6839 23.955 100.321 24.587 100.321 25.5351C100.321 26.42 99.6839 27.1152 98.7283 27.1152ZM98.7283 23.1333C97.2631 23.1333 96.1802 24.1446 96.1802 25.5351C96.1802 26.9256 97.1994 27.9369 98.7283 27.9369C100.194 27.9369 101.277 26.9256 101.277 25.5351C101.277 24.1446 100.257 23.1333 98.7283 23.1333Z" fill="black"/>
<path d="M102.232 27.8105L103.124 23.1333H103.761L105.035 26.104L106.373 23.1333H107.01L107.838 27.8105H106.883L106.437 24.9663L105.163 27.8737H104.908L103.634 24.9663L103.124 27.8105H102.232Z" fill="black"/>
</g>
</svg>
