<svg width="31" height="31" viewBox="0 0 31 31" fill="none" xmlns="http://www.w3.org/2000/svg">
<path d="M15.5 31C24.0604 31 31 24.0604 31 15.5C31 6.93959 24.0604 0 15.5 0C6.93959 0 0 6.93959 0 15.5C0 24.0604 6.93959 31 15.5 31Z" fill="#29A71A"/>
<path d="M22.3341 8.66596C20.7215 7.03722 18.5799 6.03837 16.2956 5.84957C14.0114 5.66078 11.7349 6.29446 9.87669 7.63634C8.01852 8.97821 6.70103 10.9399 6.16186 13.1676C5.62269 15.3953 5.89733 17.7424 6.93625 19.7855L5.91642 24.7367C5.90584 24.7859 5.90554 24.8369 5.91554 24.8863C5.92554 24.9357 5.94563 24.9825 5.97455 25.0238C6.01691 25.0864 6.07738 25.1346 6.14787 25.162C6.21837 25.1894 6.29555 25.1946 6.36909 25.177L11.2217 24.0268C13.259 25.0394 15.5894 25.2964 17.7984 24.7521C20.0074 24.2077 21.9517 22.8972 23.2852 21.0539C24.6187 19.2106 25.2549 16.954 25.0808 14.6856C24.9066 12.4172 23.9333 10.2841 22.3341 8.66596ZM20.8211 20.7419C19.7053 21.8545 18.2685 22.589 16.7132 22.8418C15.1578 23.0946 13.5624 22.853 12.1517 22.151L11.4753 21.8163L8.50034 22.5209L8.50915 22.4839L9.12563 19.4895L8.79449 18.8361C8.07367 17.4204 7.81939 15.8129 8.06808 14.2439C8.31677 12.6749 9.05567 11.2248 10.1789 10.1015C11.5903 8.69051 13.5043 7.89789 15.5 7.89789C17.4957 7.89789 19.4097 8.69051 20.8211 10.1015C20.8331 10.1153 20.8461 10.1282 20.8598 10.1402C22.2537 11.5548 23.0319 13.4631 23.0246 15.449C23.0174 17.435 22.2253 19.3375 20.8211 20.7419Z" fill="white"/>
<path d="M20.557 18.5454C20.1924 19.1196 19.6165 19.8224 18.8925 19.9968C17.6244 20.3033 15.678 20.0074 13.2562 17.7493L13.2262 17.7229C11.0967 15.7484 10.5437 14.105 10.6775 12.8016C10.7515 12.0619 11.368 11.3926 11.8876 10.9557C11.9697 10.8856 12.0672 10.8357 12.172 10.81C12.2769 10.7842 12.3864 10.7834 12.4917 10.8075C12.5969 10.8317 12.6951 10.8801 12.7783 10.949C12.8615 11.0178 12.9274 11.1052 12.9708 11.2041L13.7546 12.9654C13.8056 13.0797 13.8244 13.2056 13.8092 13.3297C13.794 13.4538 13.7453 13.5715 13.6683 13.67L13.272 14.1843C13.187 14.2905 13.1357 14.4197 13.1247 14.5553C13.1137 14.6909 13.1435 14.8267 13.2104 14.9452C13.4323 15.3345 13.9642 15.9069 14.5543 16.4371C15.2166 17.0359 15.9511 17.5837 16.4161 17.7704C16.5405 17.8213 16.6773 17.8337 16.8088 17.806C16.9404 17.7784 17.0606 17.712 17.1541 17.6154L17.6138 17.1522C17.7025 17.0647 17.8128 17.0023 17.9335 16.9714C18.0541 16.9405 18.1809 16.9421 18.3007 16.9761L20.1625 17.5045C20.2652 17.536 20.3593 17.5905 20.4377 17.664C20.5161 17.7375 20.5766 17.8279 20.6147 17.9283C20.6527 18.0288 20.6673 18.1366 20.6573 18.2436C20.6474 18.3505 20.613 18.4538 20.557 18.5454Z" fill="white"/>
</svg>
