<svg width="145" height="32" viewBox="0 0 145 32" fill="none" xmlns="http://www.w3.org/2000/svg">
<path d="M1.625 5.5H14.7V23H11.25V8.8H5.075V23H1.625V5.5ZM32.683 20.725C30.9163 22.475 28.7663 23.35 26.233 23.35C23.6997 23.35 21.5497 22.475 19.783 20.725C18.033 18.9417 17.158 16.7833 17.158 14.25C17.158 11.7 18.033 9.55 19.783 7.8C21.5497 6.03333 23.6997 5.15 26.233 5.15C28.7663 5.15 30.9163 6.03333 32.683 7.8C34.4497 9.55 35.333 11.7 35.333 14.25C35.333 16.8 34.4497 18.9583 32.683 20.725ZM22.208 18.375C23.2747 19.4417 24.6163 19.975 26.233 19.975C27.8497 19.975 29.1913 19.4417 30.258 18.375C31.3413 17.2917 31.883 15.9167 31.883 14.25C31.883 12.5833 31.3413 11.2083 30.258 10.125C29.1747 9.04167 27.833 8.5 26.233 8.5C24.633 8.5 23.2913 9.04167 22.208 10.125C21.1247 11.2083 20.583 12.5833 20.583 14.25C20.583 15.9167 21.1247 17.2917 22.208 18.375ZM50.4266 5.5V19.7H52.3016V26.35H48.8516V23H39.1766V26.35H35.7266V19.7H37.4266C38.3932 18.3667 38.8766 16.3917 38.8766 13.775V5.5H50.4266ZM41.1266 19.7H46.9766V8.725H42.3266V13.825C42.3266 16.375 41.9266 18.3333 41.1266 19.7ZM62.635 23.35C60.0183 23.35 57.8433 22.475 56.11 20.725C54.3933 18.9917 53.535 16.8333 53.535 14.25C53.535 11.65 54.3933 9.49167 56.11 7.775C57.8433 6.025 60.0183 5.15 62.635 5.15C64.2183 5.15 65.6766 5.525 67.01 6.275C68.36 7.00833 69.41 8.00833 70.16 9.275L67.185 11C66.7516 10.2167 66.135 9.60833 65.335 9.175C64.535 8.725 63.635 8.5 62.635 8.5C60.935 8.5 59.56 9.03333 58.51 10.1C57.4766 11.1833 56.96 12.5667 56.96 14.25C56.96 15.9167 57.4766 17.2917 58.51 18.375C59.56 19.4417 60.935 19.975 62.635 19.975C63.635 19.975 64.535 19.7583 65.335 19.325C66.1516 18.875 66.7683 18.2667 67.185 17.5L70.16 19.225C69.41 20.4917 68.36 21.5 67.01 22.25C65.6766 22.9833 64.2183 23.35 62.635 23.35ZM79.2293 14L85.9543 23H81.9793L75.7293 14.8V23H72.2793V5.5H75.7293V13.225L81.7293 5.5H85.7043L79.2293 14ZM103.1 23H99.3496L98.2996 19.85H91.3246L90.2746 23H86.5496L92.6746 5.5H96.9496L103.1 23ZM94.8246 9.475L92.4246 16.625H97.2246L94.8246 9.475ZM119.374 14.075L125.474 23H121.624L116.199 15.025V23H112.749V15.025L107.324 23H103.499L109.574 14.075L103.749 5.5H107.574L112.749 13.3V5.5H116.199V13.3L121.374 5.5H125.224L119.374 14.075ZM140.981 23H137.531V12.325L130.031 23H127.406V5.5H130.856V16.2L138.356 5.5H140.981V23Z" fill="black"/>
<circle cx="140" cy="5" r="4" fill="#3F70DA" stroke="white" stroke-width="2"/>
</svg>
