<svg width="31" height="31" viewBox="0 0 31 31" fill="none" xmlns="http://www.w3.org/2000/svg">
<path d="M15.5 31C24.0604 31 31 24.0604 31 15.5C31 6.93959 24.0604 0 15.5 0C6.93959 0 0 6.93959 0 15.5C0 24.0604 6.93959 31 15.5 31Z" fill="#039BE5"/>
<path d="M7.09255 15.1642L22.0371 9.40207C22.7308 9.15148 23.3365 9.57127 23.1118 10.6201L23.1131 10.6188L20.5685 22.6068C20.3799 23.4567 19.8749 23.6634 19.1683 23.2629L15.2933 20.4071L13.4243 22.2077C13.2176 22.4143 13.0433 22.5887 12.6428 22.5887L12.918 18.6452L20.0996 12.1572C20.4122 11.8821 20.0299 11.7271 19.6178 12.0009L10.7428 17.5886L6.91688 16.3951C6.08634 16.1316 6.06825 15.5646 7.09255 15.1642Z" fill="white"/>
</svg>
